<svg xmlns="http://www.w3.org/2000/svg" viewBox="0 0 32 32" fill="none">
  <defs>
    <linearGradient id="logoGrad" x1="0" y1="0" x2="1" y2="1">
      <stop offset="0%" stop-color="#3B82F6"/>
      <stop offset="100%" stop-color="#8B5CF6"/>
    </linearGradient>
  </defs>
  <rect width="32" height="32" rx="8" fill="url(#logoGrad)"/>
  <path d="M16 7c-4.97 0-9 3.582-9 8 0 1.468.44 2.836 1.2 4.01L7 23l4.256-1.137A9.863 9.863 0 0016 23c4.97 0 9-3.582 9-8s-4.03-8-9-8z" fill="#fff" opacity="0.2"/>
  <path d="M16 9c-4.14 0-7.5 2.91-7.5 6.5 0 1.23.38 2.38 1.03 3.35L9 21.5l2.98-.85A7.25 7.25 0 0016 22c4.14 0 7.5-2.91 7.5-6.5S20.14 9 16 9z" fill="#fff"/>
  <text x="16" y="20.5" text-anchor="middle" fill="url(#logoGrad)" font-family="system-ui,-apple-system,sans-serif" font-weight="800" font-size="12">CS</text>
</svg>
